<?xml version="1.0" encoding="utf-8" standalone="no"?>
<!DOCTYPE svg PUBLIC "-//W3C//DTD SVG 1.1//EN"
  "http://www.w3.org/Graphics/SVG/1.1/DTD/svg11.dtd">
<svg xmlns:xlink="http://www.w3.org/1999/xlink" width="360pt" height="360pt" viewBox="0 0 360 360" xmlns="http://www.w3.org/2000/svg" version="1.1">
 <metadata>
  <rdf:RDF xmlns:dc="http://purl.org/dc/elements/1.1/" xmlns:cc="http://creativecommons.org/ns#" xmlns:rdf="http://www.w3.org/1999/02/22-rdf-syntax-ns#">
   <cc:Work>
    <dc:type rdf:resource="http://purl.org/dc/dcmitype/StillImage"/>
    <dc:date>2024-03-21T12:42:04.066486</dc:date>
    <dc:format>image/svg+xml</dc:format>
    <dc:creator>
     <cc:Agent>
      <dc:title>Matplotlib v3.8.3, https://matplotlib.org/</dc:title>
     </cc:Agent>
    </dc:creator>
   </cc:Work>
  </rdf:RDF>
 </metadata>
 <defs>
  <style type="text/css">*{stroke-linejoin: round; stroke-linecap: butt}</style>
 </defs>
 <g id="figure_1">
  <g id="patch_1">
   <path d="M 0 360 
L 360 360 
L 360 0 
L 0 0 
z
" style="fill: #ffffff"/>
  </g>
  <g id="axes_1">
   <g id="patch_2">
    <path d="M 34.820312 316.291667 
L 317.796875 316.291667 
L 317.796875 29.5 
L 34.820312 29.5 
z
" style="fill: #ffffff"/>
   </g>
   <g id="matplotlib.axis_1">
    <g id="xtick_1">
     <g id="line2d_1">
      <defs>
       <path id="m5689047e28" d="M 0 0 
L 0 3.5 
" style="stroke: #000000; stroke-width: 0.8"/>
      </defs>
      <g>
       <use xlink:href="#m5689047e28" x="48.969141" y="316.291667" style="stroke: #000000; stroke-width: 0.8"/>
      </g>
     </g>
     <g id="text_1">
      <!-- 0 -->
      <g transform="translate(45.787891 330.890104) scale(0.1 -0.1)">
       <defs>
        <path id="DejaVuSans-30" d="M 2034 4250 
Q 1547 4250 1301 3770 
Q 1056 3291 1056 2328 
Q 1056 1369 1301 889 
Q 1547 409 2034 409 
Q 2525 409 2770 889 
Q 3016 1369 3016 2328 
Q 3016 3291 2770 3770 
Q 2525 4250 2034 4250 
z
M 2034 4750 
Q 2819 4750 3233 4129 
Q 3647 3509 3647 2328 
Q 3647 1150 3233 529 
Q 2819 -91 2034 -91 
Q 1250 -91 836 529 
Q 422 1150 422 2328 
Q 422 3509 836 4129 
Q 1250 4750 2034 4750 
z
" transform="scale(0.015625)"/>
       </defs>
       <use xlink:href="#DejaVuSans-30"/>
      </g>
     </g>
    </g>
    <g id="xtick_2">
     <g id="line2d_2">
      <g>
       <use xlink:href="#m5689047e28" x="77.266797" y="316.291667" style="stroke: #000000; stroke-width: 0.8"/>
      </g>
     </g>
     <g id="text_2">
      <!-- 1 -->
      <g transform="translate(74.085547 330.890104) scale(0.1 -0.1)">
       <defs>
        <path id="DejaVuSans-31" d="M 794 531 
L 1825 531 
L 1825 4091 
L 703 3866 
L 703 4441 
L 1819 4666 
L 2450 4666 
L 2450 531 
L 3481 531 
L 3481 0 
L 794 0 
L 794 531 
z
" transform="scale(0.015625)"/>
       </defs>
       <use xlink:href="#DejaVuSans-31"/>
      </g>
     </g>
    </g>
    <g id="xtick_3">
     <g id="line2d_3">
      <g>
       <use xlink:href="#m5689047e28" x="105.564453" y="316.291667" style="stroke: #000000; stroke-width: 0.8"/>
      </g>
     </g>
     <g id="text_3">
      <!-- 2 -->
      <g transform="translate(102.383203 330.890104) scale(0.1 -0.1)">
       <defs>
        <path id="DejaVuSans-32" d="M 1228 531 
L 3431 531 
L 3431 0 
L 469 0 
L 469 531 
Q 828 903 1448 1529 
Q 2069 2156 2228 2338 
Q 2531 2678 2651 2914 
Q 2772 3150 2772 3378 
Q 2772 3750 2511 3984 
Q 2250 4219 1831 4219 
Q 1534 4219 1204 4116 
Q 875 4013 500 3803 
L 500 4441 
Q 881 4594 1212 4672 
Q 1544 4750 1819 4750 
Q 2544 4750 2975 4387 
Q 3406 4025 3406 3419 
Q 3406 3131 3298 2873 
Q 3191 2616 2906 2266 
Q 2828 2175 2409 1742 
Q 1991 1309 1228 531 
z
" transform="scale(0.015625)"/>
       </defs>
       <use xlink:href="#DejaVuSans-32"/>
      </g>
     </g>
    </g>
    <g id="xtick_4">
     <g id="line2d_4">
      <g>
       <use xlink:href="#m5689047e28" x="133.862109" y="316.291667" style="stroke: #000000; stroke-width: 0.8"/>
      </g>
     </g>
     <g id="text_4">
      <!-- 3 -->
      <g transform="translate(130.680859 330.890104) scale(0.1 -0.1)">
       <defs>
        <path id="DejaVuSans-33" d="M 2597 2516 
Q 3050 2419 3304 2112 
Q 3559 1806 3559 1356 
Q 3559 666 3084 287 
Q 2609 -91 1734 -91 
Q 1441 -91 1130 -33 
Q 819 25 488 141 
L 488 750 
Q 750 597 1062 519 
Q 1375 441 1716 441 
Q 2309 441 2620 675 
Q 2931 909 2931 1356 
Q 2931 1769 2642 2001 
Q 2353 2234 1838 2234 
L 1294 2234 
L 1294 2753 
L 1863 2753 
Q 2328 2753 2575 2939 
Q 2822 3125 2822 3475 
Q 2822 3834 2567 4026 
Q 2313 4219 1838 4219 
Q 1578 4219 1281 4162 
Q 984 4106 628 3988 
L 628 4550 
Q 988 4650 1302 4700 
Q 1616 4750 1894 4750 
Q 2613 4750 3031 4423 
Q 3450 4097 3450 3541 
Q 3450 3153 3228 2886 
Q 3006 2619 2597 2516 
z
" transform="scale(0.015625)"/>
       </defs>
       <use xlink:href="#DejaVuSans-33"/>
      </g>
     </g>
    </g>
    <g id="xtick_5">
     <g id="line2d_5">
      <g>
       <use xlink:href="#m5689047e28" x="162.159766" y="316.291667" style="stroke: #000000; stroke-width: 0.8"/>
      </g>
     </g>
     <g id="text_5">
      <!-- 4 -->
      <g transform="translate(158.978516 330.890104) scale(0.1 -0.1)">
       <defs>
        <path id="DejaVuSans-34" d="M 2419 4116 
L 825 1625 
L 2419 1625 
L 2419 4116 
z
M 2253 4666 
L 3047 4666 
L 3047 1625 
L 3713 1625 
L 3713 1100 
L 3047 1100 
L 3047 0 
L 2419 0 
L 2419 1100 
L 313 1100 
L 313 1709 
L 2253 4666 
z
" transform="scale(0.015625)"/>
       </defs>
       <use xlink:href="#DejaVuSans-34"/>
      </g>
     </g>
    </g>
    <g id="xtick_6">
     <g id="line2d_6">
      <g>
       <use xlink:href="#m5689047e28" x="190.457422" y="316.291667" style="stroke: #000000; stroke-width: 0.8"/>
      </g>
     </g>
     <g id="text_6">
      <!-- 5 -->
      <g transform="translate(187.276172 330.890104) scale(0.1 -0.1)">
       <defs>
        <path id="DejaVuSans-35" d="M 691 4666 
L 3169 4666 
L 3169 4134 
L 1269 4134 
L 1269 2991 
Q 1406 3038 1543 3061 
Q 1681 3084 1819 3084 
Q 2600 3084 3056 2656 
Q 3513 2228 3513 1497 
Q 3513 744 3044 326 
Q 2575 -91 1722 -91 
Q 1428 -91 1123 -41 
Q 819 9 494 109 
L 494 744 
Q 775 591 1075 516 
Q 1375 441 1709 441 
Q 2250 441 2565 725 
Q 2881 1009 2881 1497 
Q 2881 1984 2565 2268 
Q 2250 2553 1709 2553 
Q 1456 2553 1204 2497 
Q 953 2441 691 2322 
L 691 4666 
z
" transform="scale(0.015625)"/>
       </defs>
       <use xlink:href="#DejaVuSans-35"/>
      </g>
     </g>
    </g>
    <g id="xtick_7">
     <g id="line2d_7">
      <g>
       <use xlink:href="#m5689047e28" x="218.755078" y="316.291667" style="stroke: #000000; stroke-width: 0.8"/>
      </g>
     </g>
     <g id="text_7">
      <!-- 6 -->
      <g transform="translate(215.573828 330.890104) scale(0.1 -0.1)">
       <defs>
        <path id="DejaVuSans-36" d="M 2113 2584 
Q 1688 2584 1439 2293 
Q 1191 2003 1191 1497 
Q 1191 994 1439 701 
Q 1688 409 2113 409 
Q 2538 409 2786 701 
Q 3034 994 3034 1497 
Q 3034 2003 2786 2293 
Q 2538 2584 2113 2584 
z
M 3366 4563 
L 3366 3988 
Q 3128 4100 2886 4159 
Q 2644 4219 2406 4219 
Q 1781 4219 1451 3797 
Q 1122 3375 1075 2522 
Q 1259 2794 1537 2939 
Q 1816 3084 2150 3084 
Q 2853 3084 3261 2657 
Q 3669 2231 3669 1497 
Q 3669 778 3244 343 
Q 2819 -91 2113 -91 
Q 1303 -91 875 529 
Q 447 1150 447 2328 
Q 447 3434 972 4092 
Q 1497 4750 2381 4750 
Q 2619 4750 2861 4703 
Q 3103 4656 3366 4563 
z
" transform="scale(0.015625)"/>
       </defs>
       <use xlink:href="#DejaVuSans-36"/>
      </g>
     </g>
    </g>
    <g id="xtick_8">
     <g id="line2d_8">
      <g>
       <use xlink:href="#m5689047e28" x="247.052734" y="316.291667" style="stroke: #000000; stroke-width: 0.8"/>
      </g>
     </g>
     <g id="text_8">
      <!-- 7 -->
      <g transform="translate(243.871484 330.890104) scale(0.1 -0.1)">
       <defs>
        <path id="DejaVuSans-37" d="M 525 4666 
L 3525 4666 
L 3525 4397 
L 1831 0 
L 1172 0 
L 2766 4134 
L 525 4134 
L 525 4666 
z
" transform="scale(0.015625)"/>
       </defs>
       <use xlink:href="#DejaVuSans-37"/>
      </g>
     </g>
    </g>
    <g id="xtick_9">
     <g id="line2d_9">
      <g>
       <use xlink:href="#m5689047e28" x="275.350391" y="316.291667" style="stroke: #000000; stroke-width: 0.8"/>
      </g>
     </g>
     <g id="text_9">
      <!-- 8 -->
      <g transform="translate(272.169141 330.890104) scale(0.1 -0.1)">
       <defs>
        <path id="DejaVuSans-38" d="M 2034 2216 
Q 1584 2216 1326 1975 
Q 1069 1734 1069 1313 
Q 1069 891 1326 650 
Q 1584 409 2034 409 
Q 2484 409 2743 651 
Q 3003 894 3003 1313 
Q 3003 1734 2745 1975 
Q 2488 2216 2034 2216 
z
M 1403 2484 
Q 997 2584 770 2862 
Q 544 3141 544 3541 
Q 544 4100 942 4425 
Q 1341 4750 2034 4750 
Q 2731 4750 3128 4425 
Q 3525 4100 3525 3541 
Q 3525 3141 3298 2862 
Q 3072 2584 2669 2484 
Q 3125 2378 3379 2068 
Q 3634 1759 3634 1313 
Q 3634 634 3220 271 
Q 2806 -91 2034 -91 
Q 1263 -91 848 271 
Q 434 634 434 1313 
Q 434 1759 690 2068 
Q 947 2378 1403 2484 
z
M 1172 3481 
Q 1172 3119 1398 2916 
Q 1625 2713 2034 2713 
Q 2441 2713 2670 2916 
Q 2900 3119 2900 3481 
Q 2900 3844 2670 4047 
Q 2441 4250 2034 4250 
Q 1625 4250 1398 4047 
Q 1172 3844 1172 3481 
z
" transform="scale(0.015625)"/>
       </defs>
       <use xlink:href="#DejaVuSans-38"/>
      </g>
     </g>
    </g>
    <g id="xtick_10">
     <g id="line2d_10">
      <g>
       <use xlink:href="#m5689047e28" x="303.648047" y="316.291667" style="stroke: #000000; stroke-width: 0.8"/>
      </g>
     </g>
     <g id="text_10">
      <!-- 9 -->
      <g transform="translate(300.466797 330.890104) scale(0.1 -0.1)">
       <defs>
        <path id="DejaVuSans-39" d="M 703 97 
L 703 672 
Q 941 559 1184 500 
Q 1428 441 1663 441 
Q 2288 441 2617 861 
Q 2947 1281 2994 2138 
Q 2813 1869 2534 1725 
Q 2256 1581 1919 1581 
Q 1219 1581 811 2004 
Q 403 2428 403 3163 
Q 403 3881 828 4315 
Q 1253 4750 1959 4750 
Q 2769 4750 3195 4129 
Q 3622 3509 3622 2328 
Q 3622 1225 3098 567 
Q 2575 -91 1691 -91 
Q 1453 -91 1209 -44 
Q 966 3 703 97 
z
M 1959 2075 
Q 2384 2075 2632 2365 
Q 2881 2656 2881 3163 
Q 2881 3666 2632 3958 
Q 2384 4250 1959 4250 
Q 1534 4250 1286 3958 
Q 1038 3666 1038 3163 
Q 1038 2656 1286 2365 
Q 1534 2075 1959 2075 
z
" transform="scale(0.015625)"/>
       </defs>
       <use xlink:href="#DejaVuSans-39"/>
      </g>
     </g>
    </g>
    <g id="text_11">
     <!-- Count -->
     <g transform="translate(161.460156 344.568229) scale(0.1 -0.1)">
      <defs>
       <path id="DejaVuSans-43" d="M 4122 4306 
L 4122 3641 
Q 3803 3938 3442 4084 
Q 3081 4231 2675 4231 
Q 1875 4231 1450 3742 
Q 1025 3253 1025 2328 
Q 1025 1406 1450 917 
Q 1875 428 2675 428 
Q 3081 428 3442 575 
Q 3803 722 4122 1019 
L 4122 359 
Q 3791 134 3420 21 
Q 3050 -91 2638 -91 
Q 1578 -91 968 557 
Q 359 1206 359 2328 
Q 359 3453 968 4101 
Q 1578 4750 2638 4750 
Q 3056 4750 3426 4639 
Q 3797 4528 4122 4306 
z
" transform="scale(0.015625)"/>
       <path id="DejaVuSans-6f" d="M 1959 3097 
Q 1497 3097 1228 2736 
Q 959 2375 959 1747 
Q 959 1119 1226 758 
Q 1494 397 1959 397 
Q 2419 397 2687 759 
Q 2956 1122 2956 1747 
Q 2956 2369 2687 2733 
Q 2419 3097 1959 3097 
z
M 1959 3584 
Q 2709 3584 3137 3096 
Q 3566 2609 3566 1747 
Q 3566 888 3137 398 
Q 2709 -91 1959 -91 
Q 1206 -91 779 398 
Q 353 888 353 1747 
Q 353 2609 779 3096 
Q 1206 3584 1959 3584 
z
" transform="scale(0.015625)"/>
       <path id="DejaVuSans-75" d="M 544 1381 
L 544 3500 
L 1119 3500 
L 1119 1403 
Q 1119 906 1312 657 
Q 1506 409 1894 409 
Q 2359 409 2629 706 
Q 2900 1003 2900 1516 
L 2900 3500 
L 3475 3500 
L 3475 0 
L 2900 0 
L 2900 538 
Q 2691 219 2414 64 
Q 2138 -91 1772 -91 
Q 1169 -91 856 284 
Q 544 659 544 1381 
z
M 1991 3584 
L 1991 3584 
z
" transform="scale(0.015625)"/>
       <path id="DejaVuSans-6e" d="M 3513 2113 
L 3513 0 
L 2938 0 
L 2938 2094 
Q 2938 2591 2744 2837 
Q 2550 3084 2163 3084 
Q 1697 3084 1428 2787 
Q 1159 2491 1159 1978 
L 1159 0 
L 581 0 
L 581 3500 
L 1159 3500 
L 1159 2956 
Q 1366 3272 1645 3428 
Q 1925 3584 2291 3584 
Q 2894 3584 3203 3211 
Q 3513 2838 3513 2113 
z
" transform="scale(0.015625)"/>
       <path id="DejaVuSans-74" d="M 1172 4494 
L 1172 3500 
L 2356 3500 
L 2356 3053 
L 1172 3053 
L 1172 1153 
Q 1172 725 1289 603 
Q 1406 481 1766 481 
L 2356 481 
L 2356 0 
L 1766 0 
Q 1100 0 847 248 
Q 594 497 594 1153 
L 594 3053 
L 172 3053 
L 172 3500 
L 594 3500 
L 594 4494 
L 1172 4494 
z
" transform="scale(0.015625)"/>
      </defs>
      <use xlink:href="#DejaVuSans-43"/>
      <use xlink:href="#DejaVuSans-6f" x="69.824219"/>
      <use xlink:href="#DejaVuSans-75" x="131.005859"/>
      <use xlink:href="#DejaVuSans-6e" x="194.384766"/>
      <use xlink:href="#DejaVuSans-74" x="257.763672"/>
     </g>
    </g>
   </g>
   <g id="matplotlib.axis_2">
    <g id="ytick_1">
     <g id="line2d_11">
      <defs>
       <path id="mec80959062" d="M 0 0 
L -3.5 0 
" style="stroke: #000000; stroke-width: 0.8"/>
      </defs>
      <g>
       <use xlink:href="#mec80959062" x="34.820312" y="316.291667" style="stroke: #000000; stroke-width: 0.8"/>
      </g>
     </g>
     <g id="text_12">
      <!-- 0 -->
      <g style="fill: #1f77b4" transform="translate(21.457812 320.090885) scale(0.1 -0.1)">
       <use xlink:href="#DejaVuSans-30"/>
      </g>
     </g>
    </g>
    <g id="ytick_2">
     <g id="line2d_12">
      <g>
       <use xlink:href="#mec80959062" x="34.820312" y="263.182099" style="stroke: #000000; stroke-width: 0.8"/>
      </g>
     </g>
     <g id="text_13">
      <!-- 5 -->
      <g style="fill: #1f77b4" transform="translate(21.457812 266.981318) scale(0.1 -0.1)">
       <use xlink:href="#DejaVuSans-35"/>
      </g>
     </g>
    </g>
    <g id="ytick_3">
     <g id="line2d_13">
      <g>
       <use xlink:href="#mec80959062" x="34.820312" y="210.072531" style="stroke: #000000; stroke-width: 0.8"/>
      </g>
     </g>
     <g id="text_14">
      <!-- 10 -->
      <g style="fill: #1f77b4" transform="translate(15.095312 213.87175) scale(0.1 -0.1)">
       <use xlink:href="#DejaVuSans-31"/>
       <use xlink:href="#DejaVuSans-30" x="63.623047"/>
      </g>
     </g>
    </g>
    <g id="ytick_4">
     <g id="line2d_14">
      <g>
       <use xlink:href="#mec80959062" x="34.820312" y="156.962963" style="stroke: #000000; stroke-width: 0.8"/>
      </g>
     </g>
     <g id="text_15">
      <!-- 15 -->
      <g style="fill: #1f77b4" transform="translate(15.095312 160.762182) scale(0.1 -0.1)">
       <use xlink:href="#DejaVuSans-31"/>
       <use xlink:href="#DejaVuSans-35" x="63.623047"/>
      </g>
     </g>
    </g>
    <g id="ytick_5">
     <g id="line2d_15">
      <g>
       <use xlink:href="#mec80959062" x="34.820312" y="103.853395" style="stroke: #000000; stroke-width: 0.8"/>
      </g>
     </g>
     <g id="text_16">
      <!-- 20 -->
      <g style="fill: #1f77b4" transform="translate(15.095312 107.652614) scale(0.1 -0.1)">
       <use xlink:href="#DejaVuSans-32"/>
       <use xlink:href="#DejaVuSans-30" x="63.623047"/>
      </g>
     </g>
    </g>
    <g id="ytick_6">
     <g id="line2d_16">
      <g>
       <use xlink:href="#mec80959062" x="34.820312" y="50.743827" style="stroke: #000000; stroke-width: 0.8"/>
      </g>
     </g>
     <g id="text_17">
      <!-- 25 -->
      <g style="fill: #1f77b4" transform="translate(15.095312 54.543046) scale(0.1 -0.1)">
       <use xlink:href="#DejaVuSans-32"/>
       <use xlink:href="#DejaVuSans-35" x="63.623047"/>
      </g>
     </g>
    </g>
    <g id="text_18">
     <!-- frequency -->
     <g style="fill: #1f77b4" transform="translate(9.015625 197.972396) rotate(-90) scale(0.1 -0.1)">
      <defs>
       <path id="DejaVuSans-66" d="M 2375 4863 
L 2375 4384 
L 1825 4384 
Q 1516 4384 1395 4259 
Q 1275 4134 1275 3809 
L 1275 3500 
L 2222 3500 
L 2222 3053 
L 1275 3053 
L 1275 0 
L 697 0 
L 697 3053 
L 147 3053 
L 147 3500 
L 697 3500 
L 697 3744 
Q 697 4328 969 4595 
Q 1241 4863 1831 4863 
L 2375 4863 
z
" transform="scale(0.015625)"/>
       <path id="DejaVuSans-72" d="M 2631 2963 
Q 2534 3019 2420 3045 
Q 2306 3072 2169 3072 
Q 1681 3072 1420 2755 
Q 1159 2438 1159 1844 
L 1159 0 
L 581 0 
L 581 3500 
L 1159 3500 
L 1159 2956 
Q 1341 3275 1631 3429 
Q 1922 3584 2338 3584 
Q 2397 3584 2469 3576 
Q 2541 3569 2628 3553 
L 2631 2963 
z
" transform="scale(0.015625)"/>
       <path id="DejaVuSans-65" d="M 3597 1894 
L 3597 1613 
L 953 1613 
Q 991 1019 1311 708 
Q 1631 397 2203 397 
Q 2534 397 2845 478 
Q 3156 559 3463 722 
L 3463 178 
Q 3153 47 2828 -22 
Q 2503 -91 2169 -91 
Q 1331 -91 842 396 
Q 353 884 353 1716 
Q 353 2575 817 3079 
Q 1281 3584 2069 3584 
Q 2775 3584 3186 3129 
Q 3597 2675 3597 1894 
z
M 3022 2063 
Q 3016 2534 2758 2815 
Q 2500 3097 2075 3097 
Q 1594 3097 1305 2825 
Q 1016 2553 972 2059 
L 3022 2063 
z
" transform="scale(0.015625)"/>
       <path id="DejaVuSans-71" d="M 947 1747 
Q 947 1113 1208 752 
Q 1469 391 1925 391 
Q 2381 391 2643 752 
Q 2906 1113 2906 1747 
Q 2906 2381 2643 2742 
Q 2381 3103 1925 3103 
Q 1469 3103 1208 2742 
Q 947 2381 947 1747 
z
M 2906 525 
Q 2725 213 2448 61 
Q 2172 -91 1784 -91 
Q 1150 -91 751 415 
Q 353 922 353 1747 
Q 353 2572 751 3078 
Q 1150 3584 1784 3584 
Q 2172 3584 2448 3432 
Q 2725 3281 2906 2969 
L 2906 3500 
L 3481 3500 
L 3481 -1331 
L 2906 -1331 
L 2906 525 
z
" transform="scale(0.015625)"/>
       <path id="DejaVuSans-63" d="M 3122 3366 
L 3122 2828 
Q 2878 2963 2633 3030 
Q 2388 3097 2138 3097 
Q 1578 3097 1268 2742 
Q 959 2388 959 1747 
Q 959 1106 1268 751 
Q 1578 397 2138 397 
Q 2388 397 2633 464 
Q 2878 531 3122 666 
L 3122 134 
Q 2881 22 2623 -34 
Q 2366 -91 2075 -91 
Q 1284 -91 818 406 
Q 353 903 353 1747 
Q 353 2603 823 3093 
Q 1294 3584 2113 3584 
Q 2378 3584 2631 3529 
Q 2884 3475 3122 3366 
z
" transform="scale(0.015625)"/>
       <path id="DejaVuSans-79" d="M 2059 -325 
Q 1816 -950 1584 -1140 
Q 1353 -1331 966 -1331 
L 506 -1331 
L 506 -850 
L 844 -850 
Q 1081 -850 1212 -737 
Q 1344 -625 1503 -206 
L 1606 56 
L 191 3500 
L 800 3500 
L 1894 763 
L 2988 3500 
L 3597 3500 
L 2059 -325 
z
" transform="scale(0.015625)"/>
      </defs>
      <use xlink:href="#DejaVuSans-66"/>
      <use xlink:href="#DejaVuSans-72" x="35.205078"/>
      <use xlink:href="#DejaVuSans-65" x="74.068359"/>
      <use xlink:href="#DejaVuSans-71" x="135.591797"/>
      <use xlink:href="#DejaVuSans-75" x="199.068359"/>
      <use xlink:href="#DejaVuSans-65" x="262.447266"/>
      <use xlink:href="#DejaVuSans-6e" x="323.970703"/>
      <use xlink:href="#DejaVuSans-63" x="387.349609"/>
      <use xlink:href="#DejaVuSans-79" x="442.330078"/>
     </g>
    </g>
   </g>
   <g id="patch_3">
    <path d="M 34.820312 316.291667 
L 34.820312 305.669753 
L 63.117969 305.669753 
L 63.117969 167.584877 
L 91.415625 167.584877 
L 91.415625 50.743827 
L 119.713281 50.743827 
L 119.713281 125.097222 
L 148.010938 125.097222 
L 148.010938 103.853395 
L 176.308594 103.853395 
L 176.308594 199.450617 
L 204.60625 199.450617 
L 204.60625 252.560185 
L 232.903906 252.560185 
L 232.903906 273.804012 
L 261.201563 273.804012 
L 261.201563 305.669753 
L 289.499219 305.669753 
L 289.499219 316.291667 
" clip-path="url(#pfae335a36b)" style="fill: none; stroke: #1f77b4; stroke-linejoin: miter"/>
   </g>
   <g id="patch_4">
    <path d="M 34.820312 316.291667 
L 34.820312 29.5 
" style="fill: none; stroke: #000000; stroke-width: 0.8; stroke-linejoin: miter; stroke-linecap: square"/>
   </g>
   <g id="patch_5">
    <path d="M 317.796875 316.291667 
L 317.796875 29.5 
" style="fill: none; stroke: #000000; stroke-width: 0.8; stroke-linejoin: miter; stroke-linecap: square"/>
   </g>
   <g id="patch_6">
    <path d="M 34.820312 316.291667 
L 317.796875 316.291667 
" style="fill: none; stroke: #000000; stroke-width: 0.8; stroke-linejoin: miter; stroke-linecap: square"/>
   </g>
   <g id="patch_7">
    <path d="M 34.820312 29.5 
L 317.796875 29.5 
" style="fill: none; stroke: #000000; stroke-width: 0.8; stroke-linejoin: miter; stroke-linecap: square"/>
   </g>
  </g>
  <g id="axes_2">
   <g id="patch_8">
    <path d="M 34.820312 316.291667 
L 63.117969 316.291667 
L 63.117969 305.669753 
L 34.820312 305.669753 
z
" clip-path="url(#pfae335a36b)" style="fill: #ff7f0e"/>
   </g>
   <g id="patch_9">
    <path d="M 63.117969 316.291667 
L 91.415625 316.291667 
L 91.415625 167.584877 
L 63.117969 167.584877 
z
" clip-path="url(#pfae335a36b)" style="fill: #ff7f0e"/>
   </g>
   <g id="patch_10">
    <path d="M 91.415625 316.291667 
L 119.713281 316.291667 
L 119.713281 50.743827 
L 91.415625 50.743827 
z
" clip-path="url(#pfae335a36b)" style="fill: #ff7f0e"/>
   </g>
   <g id="patch_11">
    <path d="M 119.713281 316.291667 
L 148.010938 316.291667 
L 148.010938 125.097222 
L 119.713281 125.097222 
z
" clip-path="url(#pfae335a36b)" style="fill: #ff7f0e"/>
   </g>
   <g id="patch_12">
    <path d="M 148.010938 316.291667 
L 176.308594 316.291667 
L 176.308594 103.853395 
L 148.010938 103.853395 
z
" clip-path="url(#pfae335a36b)" style="fill: #ff7f0e"/>
   </g>
   <g id="patch_13">
    <path d="M 176.308594 316.291667 
L 204.60625 316.291667 
L 204.60625 199.450617 
L 176.308594 199.450617 
z
" clip-path="url(#pfae335a36b)" style="fill: #ff7f0e"/>
   </g>
   <g id="patch_14">
    <path d="M 204.60625 316.291667 
L 232.903906 316.291667 
L 232.903906 252.560185 
L 204.60625 252.560185 
z
" clip-path="url(#pfae335a36b)" style="fill: #ff7f0e"/>
   </g>
   <g id="patch_15">
    <path d="M 232.903906 316.291667 
L 261.201563 316.291667 
L 261.201563 273.804012 
L 232.903906 273.804012 
z
" clip-path="url(#pfae335a36b)" style="fill: #ff7f0e"/>
   </g>
   <g id="patch_16">
    <path d="M 261.201563 316.291667 
L 289.499219 316.291667 
L 289.499219 305.669753 
L 261.201563 305.669753 
z
" clip-path="url(#pfae335a36b)" style="fill: #ff7f0e"/>
   </g>
   <g id="matplotlib.axis_3">
    <g id="ytick_7">
     <g id="line2d_17">
      <defs>
       <path id="m7be62c2847" d="M 0 0 
L 3.5 0 
" style="stroke: #000000; stroke-width: 0.8"/>
      </defs>
      <g>
       <use xlink:href="#m7be62c2847" x="317.796875" y="316.291667" style="stroke: #000000; stroke-width: 0.8"/>
      </g>
     </g>
     <g id="text_19">
      <!-- 0.00 -->
      <g style="fill: #d62728" transform="translate(324.796875 320.090885) scale(0.1 -0.1)">
       <defs>
        <path id="DejaVuSans-2e" d="M 684 794 
L 1344 794 
L 1344 0 
L 684 0 
L 684 794 
z
" transform="scale(0.015625)"/>
       </defs>
       <use xlink:href="#DejaVuSans-30"/>
       <use xlink:href="#DejaVuSans-2e" x="63.623047"/>
       <use xlink:href="#DejaVuSans-30" x="95.410156"/>
       <use xlink:href="#DejaVuSans-30" x="159.033203"/>
      </g>
     </g>
    </g>
    <g id="ytick_8">
     <g id="line2d_18">
      <g>
       <use xlink:href="#m7be62c2847" x="317.796875" y="263.182099" style="stroke: #000000; stroke-width: 0.8"/>
      </g>
     </g>
     <g id="text_20">
      <!-- 0.05 -->
      <g style="fill: #d62728" transform="translate(324.796875 266.981318) scale(0.1 -0.1)">
       <use xlink:href="#DejaVuSans-30"/>
       <use xlink:href="#DejaVuSans-2e" x="63.623047"/>
       <use xlink:href="#DejaVuSans-30" x="95.410156"/>
       <use xlink:href="#DejaVuSans-35" x="159.033203"/>
      </g>
     </g>
    </g>
    <g id="ytick_9">
     <g id="line2d_19">
      <g>
       <use xlink:href="#m7be62c2847" x="317.796875" y="210.072531" style="stroke: #000000; stroke-width: 0.8"/>
      </g>
     </g>
     <g id="text_21">
      <!-- 0.10 -->
      <g style="fill: #d62728" transform="translate(324.796875 213.87175) scale(0.1 -0.1)">
       <use xlink:href="#DejaVuSans-30"/>
       <use xlink:href="#DejaVuSans-2e" x="63.623047"/>
       <use xlink:href="#DejaVuSans-31" x="95.410156"/>
       <use xlink:href="#DejaVuSans-30" x="159.033203"/>
      </g>
     </g>
    </g>
    <g id="ytick_10">
     <g id="line2d_20">
      <g>
       <use xlink:href="#m7be62c2847" x="317.796875" y="156.962963" style="stroke: #000000; stroke-width: 0.8"/>
      </g>
     </g>
     <g id="text_22">
      <!-- 0.15 -->
      <g style="fill: #d62728" transform="translate(324.796875 160.762182) scale(0.1 -0.1)">
       <use xlink:href="#DejaVuSans-30"/>
       <use xlink:href="#DejaVuSans-2e" x="63.623047"/>
       <use xlink:href="#DejaVuSans-31" x="95.410156"/>
       <use xlink:href="#DejaVuSans-35" x="159.033203"/>
      </g>
     </g>
    </g>
    <g id="ytick_11">
     <g id="line2d_21">
      <g>
       <use xlink:href="#m7be62c2847" x="317.796875" y="103.853395" style="stroke: #000000; stroke-width: 0.8"/>
      </g>
     </g>
     <g id="text_23">
      <!-- 0.20 -->
      <g style="fill: #d62728" transform="translate(324.796875 107.652614) scale(0.1 -0.1)">
       <use xlink:href="#DejaVuSans-30"/>
       <use xlink:href="#DejaVuSans-2e" x="63.623047"/>
       <use xlink:href="#DejaVuSans-32" x="95.410156"/>
       <use xlink:href="#DejaVuSans-30" x="159.033203"/>
      </g>
     </g>
    </g>
    <g id="ytick_12">
     <g id="line2d_22">
      <g>
       <use xlink:href="#m7be62c2847" x="317.796875" y="50.743827" style="stroke: #000000; stroke-width: 0.8"/>
      </g>
     </g>
     <g id="text_24">
      <!-- 0.25 -->
      <g style="fill: #d62728" transform="translate(324.796875 54.543046) scale(0.1 -0.1)">
       <use xlink:href="#DejaVuSans-30"/>
       <use xlink:href="#DejaVuSans-2e" x="63.623047"/>
       <use xlink:href="#DejaVuSans-32" x="95.410156"/>
       <use xlink:href="#DejaVuSans-35" x="159.033203"/>
      </g>
     </g>
    </g>
    <g id="text_25">
     <!-- probability -->
     <g style="fill: #d62728" transform="translate(358.660937 199.571615) rotate(-90) scale(0.1 -0.1)">
      <defs>
       <path id="DejaVuSans-70" d="M 1159 525 
L 1159 -1331 
L 581 -1331 
L 581 3500 
L 1159 3500 
L 1159 2969 
Q 1341 3281 1617 3432 
Q 1894 3584 2278 3584 
Q 2916 3584 3314 3078 
Q 3713 2572 3713 1747 
Q 3713 922 3314 415 
Q 2916 -91 2278 -91 
Q 1894 -91 1617 61 
Q 1341 213 1159 525 
z
M 3116 1747 
Q 3116 2381 2855 2742 
Q 2594 3103 2138 3103 
Q 1681 3103 1420 2742 
Q 1159 2381 1159 1747 
Q 1159 1113 1420 752 
Q 1681 391 2138 391 
Q 2594 391 2855 752 
Q 3116 1113 3116 1747 
z
" transform="scale(0.015625)"/>
       <path id="DejaVuSans-62" d="M 3116 1747 
Q 3116 2381 2855 2742 
Q 2594 3103 2138 3103 
Q 1681 3103 1420 2742 
Q 1159 2381 1159 1747 
Q 1159 1113 1420 752 
Q 1681 391 2138 391 
Q 2594 391 2855 752 
Q 3116 1113 3116 1747 
z
M 1159 2969 
Q 1341 3281 1617 3432 
Q 1894 3584 2278 3584 
Q 2916 3584 3314 3078 
Q 3713 2572 3713 1747 
Q 3713 922 3314 415 
Q 2916 -91 2278 -91 
Q 1894 -91 1617 61 
Q 1341 213 1159 525 
L 1159 0 
L 581 0 
L 581 4863 
L 1159 4863 
L 1159 2969 
z
" transform="scale(0.015625)"/>
       <path id="DejaVuSans-61" d="M 2194 1759 
Q 1497 1759 1228 1600 
Q 959 1441 959 1056 
Q 959 750 1161 570 
Q 1363 391 1709 391 
Q 2188 391 2477 730 
Q 2766 1069 2766 1631 
L 2766 1759 
L 2194 1759 
z
M 3341 1997 
L 3341 0 
L 2766 0 
L 2766 531 
Q 2569 213 2275 61 
Q 1981 -91 1556 -91 
Q 1019 -91 701 211 
Q 384 513 384 1019 
Q 384 1609 779 1909 
Q 1175 2209 1959 2209 
L 2766 2209 
L 2766 2266 
Q 2766 2663 2505 2880 
Q 2244 3097 1772 3097 
Q 1472 3097 1187 3025 
Q 903 2953 641 2809 
L 641 3341 
Q 956 3463 1253 3523 
Q 1550 3584 1831 3584 
Q 2591 3584 2966 3190 
Q 3341 2797 3341 1997 
z
" transform="scale(0.015625)"/>
       <path id="DejaVuSans-69" d="M 603 3500 
L 1178 3500 
L 1178 0 
L 603 0 
L 603 3500 
z
M 603 4863 
L 1178 4863 
L 1178 4134 
L 603 4134 
L 603 4863 
z
" transform="scale(0.015625)"/>
       <path id="DejaVuSans-6c" d="M 603 4863 
L 1178 4863 
L 1178 0 
L 603 0 
L 603 4863 
z
" transform="scale(0.015625)"/>
      </defs>
      <use xlink:href="#DejaVuSans-70"/>
      <use xlink:href="#DejaVuSans-72" x="63.476562"/>
      <use xlink:href="#DejaVuSans-6f" x="102.339844"/>
      <use xlink:href="#DejaVuSans-62" x="163.521484"/>
      <use xlink:href="#DejaVuSans-61" x="226.998047"/>
      <use xlink:href="#DejaVuSans-62" x="288.277344"/>
      <use xlink:href="#DejaVuSans-69" x="351.753906"/>
      <use xlink:href="#DejaVuSans-6c" x="379.537109"/>
      <use xlink:href="#DejaVuSans-69" x="407.320312"/>
      <use xlink:href="#DejaVuSans-74" x="435.103516"/>
      <use xlink:href="#DejaVuSans-79" x="474.3125"/>
     </g>
    </g>
   </g>
   <g id="LineCollection_1">
    <path d="M 48.969141 316.291667 
L 48.969141 275.106043 
" clip-path="url(#pfae335a36b)" style="fill: none; stroke: #1f77b4; stroke-width: 1.5"/>
    <path d="M 77.266797 316.291667 
L 77.266797 182.438384 
" clip-path="url(#pfae335a36b)" style="fill: none; stroke: #1f77b4; stroke-width: 1.5"/>
    <path d="M 105.564453 316.291667 
L 105.564453 98.780075 
" clip-path="url(#pfae335a36b)" style="fill: none; stroke: #1f77b4; stroke-width: 1.5"/>
    <path d="M 133.862109 316.291667 
L 133.862109 80.654102 
" clip-path="url(#pfae335a36b)" style="fill: none; stroke: #1f77b4; stroke-width: 1.5"/>
    <path d="M 162.159766 316.291667 
L 162.159766 124.836139 
" clip-path="url(#pfae335a36b)" style="fill: none; stroke: #1f77b4; stroke-width: 1.5"/>
    <path d="M 190.457422 316.291667 
L 190.457422 191.845569 
" clip-path="url(#pfae335a36b)" style="fill: none; stroke: #1f77b4; stroke-width: 1.5"/>
    <path d="M 218.755078 316.291667 
L 218.755078 248.883362 
" clip-path="url(#pfae335a36b)" style="fill: none; stroke: #1f77b4; stroke-width: 1.5"/>
    <path d="M 247.052734 316.291667 
L 247.052734 284.994953 
" clip-path="url(#pfae335a36b)" style="fill: none; stroke: #1f77b4; stroke-width: 1.5"/>
    <path d="M 275.350391 316.291667 
L 275.350391 303.577376 
" clip-path="url(#pfae335a36b)" style="fill: none; stroke: #1f77b4; stroke-width: 1.5"/>
   </g>
   <g id="line2d_23">
    <path d="M 48.969141 275.106043 
L 52.376216 265.790523 
L 55.783292 255.714374 
L 59.190368 244.999589 
L 63.449212 230.893877 
L 69.411595 210.24336 
L 84.743435 156.595954 
L 89.00228 142.650383 
L 92.409355 132.102145 
L 95.816431 122.226707 
L 99.223507 113.146061 
L 101.778813 106.930547 
L 104.33412 101.282192 
L 106.889427 96.251089 
L 109.444734 91.858346 
L 111.148272 89.281348 
L 112.851809 86.982915 
L 114.555347 84.960795 
L 116.258885 83.212731 
L 117.962423 81.736469 
L 119.665961 80.529753 
L 121.369499 79.590329 
L 123.073036 78.915941 
L 124.776574 78.504336 
L 126.480112 78.353257 
L 128.18365 78.460449 
L 129.887188 78.823659 
L 131.590726 79.44063 
L 133.294263 80.309108 
L 134.997801 81.426433 
L 136.701339 82.785241 
L 138.404877 84.375133 
L 140.108415 86.185657 
L 142.663722 89.292272 
L 145.219028 92.836528 
L 147.774335 96.783159 
L 150.329642 101.096893 
L 153.736717 107.358632 
L 157.143793 114.126698 
L 161.402638 123.171443 
L 166.513251 134.674964 
L 172.475634 148.711753 
L 192.918088 197.50297 
L 198.028701 208.881902 
L 203.139315 219.715706 
L 207.398159 228.288902 
L 211.657004 236.415494 
L 215.915848 244.064556 
L 220.174693 251.205465 
L 224.433538 257.826023 
L 228.692382 263.942588 
L 232.099458 268.485607 
L 235.506533 272.727742 
L 238.913609 276.678626 
L 242.320685 280.347891 
L 245.727761 283.74517 
L 249.134836 286.880219 
L 252.541912 289.764562 
L 255.948988 292.41105 
L 260.207832 295.404299 
L 264.466677 298.071183 
L 268.725521 300.436861 
L 272.984366 302.526491 
L 277.24321 304.36523 
L 281.502055 305.978237 
L 286.612669 307.651303 
L 291.723282 309.079015 
L 297.685664 310.492578 
L 303.648047 311.700395 
L 303.648047 311.700395 
" clip-path="url(#pfae335a36b)" style="fill: none; stroke: #d62728; stroke-width: 1.5; stroke-linecap: square"/>
    <defs>
     <path id="m9ca76bc846" d="M -0.49999 0.49999 
L 0.50001 0.49999 
L 0.50001 -0.50001 
L -0.49999 -0.50001 
z
"/>
    </defs>
    <g clip-path="url(#pfae335a36b)">
     <use xlink:href="#m9ca76bc846" x="48.969141" y="275.106043" style="fill: #d62728"/>
     <use xlink:href="#m9ca76bc846" x="49.82091" y="272.855143" style="fill: #d62728"/>
     <use xlink:href="#m9ca76bc846" x="50.672678" y="270.550986" style="fill: #d62728"/>
     <use xlink:href="#m9ca76bc846" x="51.524447" y="268.195477" style="fill: #d62728"/>
     <use xlink:href="#m9ca76bc846" x="52.376216" y="265.790523" style="fill: #d62728"/>
     <use xlink:href="#m9ca76bc846" x="53.227985" y="263.33803" style="fill: #d62728"/>
     <use xlink:href="#m9ca76bc846" x="54.079754" y="260.839903" style="fill: #d62728"/>
     <use xlink:href="#m9ca76bc846" x="54.931523" y="258.298049" style="fill: #d62728"/>
     <use xlink:href="#m9ca76bc846" x="55.783292" y="255.714374" style="fill: #d62728"/>
     <use xlink:href="#m9ca76bc846" x="56.635061" y="253.090785" style="fill: #d62728"/>
     <use xlink:href="#m9ca76bc846" x="57.48683" y="250.429187" style="fill: #d62728"/>
     <use xlink:href="#m9ca76bc846" x="58.338599" y="247.731486" style="fill: #d62728"/>
     <use xlink:href="#m9ca76bc846" x="59.190368" y="244.999589" style="fill: #d62728"/>
     <use xlink:href="#m9ca76bc846" x="60.042137" y="242.235403" style="fill: #d62728"/>
     <use xlink:href="#m9ca76bc846" x="60.893905" y="239.440832" style="fill: #d62728"/>
     <use xlink:href="#m9ca76bc846" x="61.745674" y="236.617783" style="fill: #d62728"/>
     <use xlink:href="#m9ca76bc846" x="62.597443" y="233.768163" style="fill: #d62728"/>
     <use xlink:href="#m9ca76bc846" x="63.449212" y="230.893877" style="fill: #d62728"/>
     <use xlink:href="#m9ca76bc846" x="64.300981" y="227.996832" style="fill: #d62728"/>
     <use xlink:href="#m9ca76bc846" x="65.15275" y="225.078934" style="fill: #d62728"/>
     <use xlink:href="#m9ca76bc846" x="66.004519" y="222.142089" style="fill: #d62728"/>
     <use xlink:href="#m9ca76bc846" x="66.856288" y="219.188202" style="fill: #d62728"/>
     <use xlink:href="#m9ca76bc846" x="67.708057" y="216.219182" style="fill: #d62728"/>
     <use xlink:href="#m9ca76bc846" x="68.559826" y="213.236932" style="fill: #d62728"/>
     <use xlink:href="#m9ca76bc846" x="69.411595" y="210.24336" style="fill: #d62728"/>
     <use xlink:href="#m9ca76bc846" x="70.263364" y="207.240372" style="fill: #d62728"/>
     <use xlink:href="#m9ca76bc846" x="71.115132" y="204.229874" style="fill: #d62728"/>
     <use xlink:href="#m9ca76bc846" x="71.966901" y="201.213772" style="fill: #d62728"/>
     <use xlink:href="#m9ca76bc846" x="72.81867" y="198.193972" style="fill: #d62728"/>
     <use xlink:href="#m9ca76bc846" x="73.670439" y="195.172381" style="fill: #d62728"/>
     <use xlink:href="#m9ca76bc846" x="74.522208" y="192.150904" style="fill: #d62728"/>
     <use xlink:href="#m9ca76bc846" x="75.373977" y="189.131447" style="fill: #d62728"/>
     <use xlink:href="#m9ca76bc846" x="76.225746" y="186.115918" style="fill: #d62728"/>
     <use xlink:href="#m9ca76bc846" x="77.077515" y="183.106222" style="fill: #d62728"/>
     <use xlink:href="#m9ca76bc846" x="77.929284" y="180.104264" style="fill: #d62728"/>
     <use xlink:href="#m9ca76bc846" x="78.781053" y="177.111952" style="fill: #d62728"/>
     <use xlink:href="#m9ca76bc846" x="79.632822" y="174.131192" style="fill: #d62728"/>
     <use xlink:href="#m9ca76bc846" x="80.484591" y="171.163889" style="fill: #d62728"/>
     <use xlink:href="#m9ca76bc846" x="81.336359" y="168.21195" style="fill: #d62728"/>
     <use xlink:href="#m9ca76bc846" x="82.188128" y="165.277281" style="fill: #d62728"/>
     <use xlink:href="#m9ca76bc846" x="83.039897" y="162.361788" style="fill: #d62728"/>
     <use xlink:href="#m9ca76bc846" x="83.891666" y="159.467377" style="fill: #d62728"/>
     <use xlink:href="#m9ca76bc846" x="84.743435" y="156.595954" style="fill: #d62728"/>
     <use xlink:href="#m9ca76bc846" x="85.595204" y="153.749426" style="fill: #d62728"/>
     <use xlink:href="#m9ca76bc846" x="86.446973" y="150.929699" style="fill: #d62728"/>
     <use xlink:href="#m9ca76bc846" x="87.298742" y="148.138679" style="fill: #d62728"/>
     <use xlink:href="#m9ca76bc846" x="88.150511" y="145.378271" style="fill: #d62728"/>
     <use xlink:href="#m9ca76bc846" x="89.00228" y="142.650383" style="fill: #d62728"/>
     <use xlink:href="#m9ca76bc846" x="89.854049" y="139.95692" style="fill: #d62728"/>
     <use xlink:href="#m9ca76bc846" x="90.705818" y="137.299789" style="fill: #d62728"/>
     <use xlink:href="#m9ca76bc846" x="91.557586" y="134.680895" style="fill: #d62728"/>
     <use xlink:href="#m9ca76bc846" x="92.409355" y="132.102145" style="fill: #d62728"/>
     <use xlink:href="#m9ca76bc846" x="93.261124" y="129.565445" style="fill: #d62728"/>
     <use xlink:href="#m9ca76bc846" x="94.112893" y="127.072702" style="fill: #d62728"/>
     <use xlink:href="#m9ca76bc846" x="94.964662" y="124.62582" style="fill: #d62728"/>
     <use xlink:href="#m9ca76bc846" x="95.816431" y="122.226707" style="fill: #d62728"/>
     <use xlink:href="#m9ca76bc846" x="96.6682" y="119.877268" style="fill: #d62728"/>
     <use xlink:href="#m9ca76bc846" x="97.519969" y="117.57941" style="fill: #d62728"/>
     <use xlink:href="#m9ca76bc846" x="98.371738" y="115.335039" style="fill: #d62728"/>
     <use xlink:href="#m9ca76bc846" x="99.223507" y="113.146061" style="fill: #d62728"/>
     <use xlink:href="#m9ca76bc846" x="100.075276" y="111.014382" style="fill: #d62728"/>
     <use xlink:href="#m9ca76bc846" x="100.927045" y="108.941909" style="fill: #d62728"/>
     <use xlink:href="#m9ca76bc846" x="101.778813" y="106.930547" style="fill: #d62728"/>
     <use xlink:href="#m9ca76bc846" x="102.630582" y="104.982203" style="fill: #d62728"/>
     <use xlink:href="#m9ca76bc846" x="103.482351" y="103.098782" style="fill: #d62728"/>
     <use xlink:href="#m9ca76bc846" x="104.33412" y="101.282192" style="fill: #d62728"/>
     <use xlink:href="#m9ca76bc846" x="105.185889" y="99.534337" style="fill: #d62728"/>
     <use xlink:href="#m9ca76bc846" x="106.037658" y="97.857063" style="fill: #d62728"/>
     <use xlink:href="#m9ca76bc846" x="106.889427" y="96.251089" style="fill: #d62728"/>
     <use xlink:href="#m9ca76bc846" x="107.741196" y="94.716166" style="fill: #d62728"/>
     <use xlink:href="#m9ca76bc846" x="108.592965" y="93.252013" style="fill: #d62728"/>
     <use xlink:href="#m9ca76bc846" x="109.444734" y="91.858346" style="fill: #d62728"/>
     <use xlink:href="#m9ca76bc846" x="110.296503" y="90.534885" style="fill: #d62728"/>
     <use xlink:href="#m9ca76bc846" x="111.148272" y="89.281348" style="fill: #d62728"/>
     <use xlink:href="#m9ca76bc846" x="112.00004" y="88.097452" style="fill: #d62728"/>
     <use xlink:href="#m9ca76bc846" x="112.851809" y="86.982915" style="fill: #d62728"/>
     <use xlink:href="#m9ca76bc846" x="113.703578" y="85.937457" style="fill: #d62728"/>
     <use xlink:href="#m9ca76bc846" x="114.555347" y="84.960795" style="fill: #d62728"/>
     <use xlink:href="#m9ca76bc846" x="115.407116" y="84.052647" style="fill: #d62728"/>
     <use xlink:href="#m9ca76bc846" x="116.258885" y="83.212731" style="fill: #d62728"/>
     <use xlink:href="#m9ca76bc846" x="117.110654" y="82.440766" style="fill: #d62728"/>
     <use xlink:href="#m9ca76bc846" x="117.962423" y="81.736469" style="fill: #d62728"/>
     <use xlink:href="#m9ca76bc846" x="118.814192" y="81.099558" style="fill: #d62728"/>
     <use xlink:href="#m9ca76bc846" x="119.665961" y="80.529753" style="fill: #d62728"/>
     <use xlink:href="#m9ca76bc846" x="120.51773" y="80.02677" style="fill: #d62728"/>
     <use xlink:href="#m9ca76bc846" x="121.369499" y="79.590329" style="fill: #d62728"/>
     <use xlink:href="#m9ca76bc846" x="122.221268" y="79.220146" style="fill: #d62728"/>
     <use xlink:href="#m9ca76bc846" x="123.073036" y="78.915941" style="fill: #d62728"/>
     <use xlink:href="#m9ca76bc846" x="123.924805" y="78.677432" style="fill: #d62728"/>
     <use xlink:href="#m9ca76bc846" x="124.776574" y="78.504336" style="fill: #d62728"/>
     <use xlink:href="#m9ca76bc846" x="125.628343" y="78.396371" style="fill: #d62728"/>
     <use xlink:href="#m9ca76bc846" x="126.480112" y="78.353257" style="fill: #d62728"/>
     <use xlink:href="#m9ca76bc846" x="127.331881" y="78.37471" style="fill: #d62728"/>
     <use xlink:href="#m9ca76bc846" x="128.18365" y="78.460449" style="fill: #d62728"/>
     <use xlink:href="#m9ca76bc846" x="129.035419" y="78.610193" style="fill: #d62728"/>
     <use xlink:href="#m9ca76bc846" x="129.887188" y="78.823659" style="fill: #d62728"/>
     <use xlink:href="#m9ca76bc846" x="130.738957" y="79.100565" style="fill: #d62728"/>
     <use xlink:href="#m9ca76bc846" x="131.590726" y="79.44063" style="fill: #d62728"/>
     <use xlink:href="#m9ca76bc846" x="132.442495" y="79.843572" style="fill: #d62728"/>
     <use xlink:href="#m9ca76bc846" x="133.294263" y="80.309108" style="fill: #d62728"/>
     <use xlink:href="#m9ca76bc846" x="134.146032" y="80.836951" style="fill: #d62728"/>
     <use xlink:href="#m9ca76bc846" x="134.997801" y="81.426433" style="fill: #d62728"/>
     <use xlink:href="#m9ca76bc846" x="135.84957" y="82.076299" style="fill: #d62728"/>
     <use xlink:href="#m9ca76bc846" x="136.701339" y="82.785241" style="fill: #d62728"/>
     <use xlink:href="#m9ca76bc846" x="137.553108" y="83.551955" style="fill: #d62728"/>
     <use xlink:href="#m9ca76bc846" x="138.404877" y="84.375133" style="fill: #d62728"/>
     <use xlink:href="#m9ca76bc846" x="139.256646" y="85.253469" style="fill: #d62728"/>
     <use xlink:href="#m9ca76bc846" x="140.108415" y="86.185657" style="fill: #d62728"/>
     <use xlink:href="#m9ca76bc846" x="140.960184" y="87.170391" style="fill: #d62728"/>
     <use xlink:href="#m9ca76bc846" x="141.811953" y="88.206365" style="fill: #d62728"/>
     <use xlink:href="#m9ca76bc846" x="142.663722" y="89.292272" style="fill: #d62728"/>
     <use xlink:href="#m9ca76bc846" x="143.51549" y="90.426805" style="fill: #d62728"/>
     <use xlink:href="#m9ca76bc846" x="144.367259" y="91.60866" style="fill: #d62728"/>
     <use xlink:href="#m9ca76bc846" x="145.219028" y="92.836528" style="fill: #d62728"/>
     <use xlink:href="#m9ca76bc846" x="146.070797" y="94.109105" style="fill: #d62728"/>
     <use xlink:href="#m9ca76bc846" x="146.922566" y="95.425084" style="fill: #d62728"/>
     <use xlink:href="#m9ca76bc846" x="147.774335" y="96.783159" style="fill: #d62728"/>
     <use xlink:href="#m9ca76bc846" x="148.626104" y="98.182023" style="fill: #d62728"/>
     <use xlink:href="#m9ca76bc846" x="149.477873" y="99.62037" style="fill: #d62728"/>
     <use xlink:href="#m9ca76bc846" x="150.329642" y="101.096893" style="fill: #d62728"/>
     <use xlink:href="#m9ca76bc846" x="151.181411" y="102.610288" style="fill: #d62728"/>
     <use xlink:href="#m9ca76bc846" x="152.03318" y="104.159246" style="fill: #d62728"/>
     <use xlink:href="#m9ca76bc846" x="152.884949" y="105.742463" style="fill: #d62728"/>
     <use xlink:href="#m9ca76bc846" x="153.736717" y="107.358632" style="fill: #d62728"/>
     <use xlink:href="#m9ca76bc846" x="154.588486" y="109.006446" style="fill: #d62728"/>
     <use xlink:href="#m9ca76bc846" x="155.440255" y="110.684599" style="fill: #d62728"/>
     <use xlink:href="#m9ca76bc846" x="156.292024" y="112.391785" style="fill: #d62728"/>
     <use xlink:href="#m9ca76bc846" x="157.143793" y="114.126698" style="fill: #d62728"/>
     <use xlink:href="#m9ca76bc846" x="157.995562" y="115.888031" style="fill: #d62728"/>
     <use xlink:href="#m9ca76bc846" x="158.847331" y="117.674479" style="fill: #d62728"/>
     <use xlink:href="#m9ca76bc846" x="159.6991" y="119.484734" style="fill: #d62728"/>
     <use xlink:href="#m9ca76bc846" x="160.550869" y="121.317491" style="fill: #d62728"/>
     <use xlink:href="#m9ca76bc846" x="161.402638" y="123.171443" style="fill: #d62728"/>
     <use xlink:href="#m9ca76bc846" x="162.254407" y="125.045285" style="fill: #d62728"/>
     <use xlink:href="#m9ca76bc846" x="163.106176" y="126.93779" style="fill: #d62728"/>
     <use xlink:href="#m9ca76bc846" x="163.957944" y="128.847964" style="fill: #d62728"/>
     <use xlink:href="#m9ca76bc846" x="164.809713" y="130.774853" style="fill: #d62728"/>
     <use xlink:href="#m9ca76bc846" x="165.661482" y="132.717504" style="fill: #d62728"/>
     <use xlink:href="#m9ca76bc846" x="166.513251" y="134.674964" style="fill: #d62728"/>
     <use xlink:href="#m9ca76bc846" x="167.36502" y="136.64628" style="fill: #d62728"/>
     <use xlink:href="#m9ca76bc846" x="168.216789" y="138.630497" style="fill: #d62728"/>
     <use xlink:href="#m9ca76bc846" x="169.068558" y="140.626664" style="fill: #d62728"/>
     <use xlink:href="#m9ca76bc846" x="169.920327" y="142.633826" style="fill: #d62728"/>
     <use xlink:href="#m9ca76bc846" x="170.772096" y="144.651031" style="fill: #d62728"/>
     <use xlink:href="#m9ca76bc846" x="171.623865" y="146.677324" style="fill: #d62728"/>
     <use xlink:href="#m9ca76bc846" x="172.475634" y="148.711753" style="fill: #d62728"/>
     <use xlink:href="#m9ca76bc846" x="173.327403" y="150.753364" style="fill: #d62728"/>
     <use xlink:href="#m9ca76bc846" x="174.179171" y="152.801205" style="fill: #d62728"/>
     <use xlink:href="#m9ca76bc846" x="175.03094" y="154.854321" style="fill: #d62728"/>
     <use xlink:href="#m9ca76bc846" x="175.882709" y="156.911759" style="fill: #d62728"/>
     <use xlink:href="#m9ca76bc846" x="176.734478" y="158.972567" style="fill: #d62728"/>
     <use xlink:href="#m9ca76bc846" x="177.586247" y="161.03579" style="fill: #d62728"/>
     <use xlink:href="#m9ca76bc846" x="178.438016" y="163.100476" style="fill: #d62728"/>
     <use xlink:href="#m9ca76bc846" x="179.289785" y="165.165671" style="fill: #d62728"/>
     <use xlink:href="#m9ca76bc846" x="180.141554" y="167.230422" style="fill: #d62728"/>
     <use xlink:href="#m9ca76bc846" x="180.993323" y="169.293775" style="fill: #d62728"/>
     <use xlink:href="#m9ca76bc846" x="181.845092" y="171.354778" style="fill: #d62728"/>
     <use xlink:href="#m9ca76bc846" x="182.696861" y="173.412476" style="fill: #d62728"/>
     <use xlink:href="#m9ca76bc846" x="183.54863" y="175.465917" style="fill: #d62728"/>
     <use xlink:href="#m9ca76bc846" x="184.400398" y="177.514148" style="fill: #d62728"/>
     <use xlink:href="#m9ca76bc846" x="185.252167" y="179.556214" style="fill: #d62728"/>
     <use xlink:href="#m9ca76bc846" x="186.103936" y="181.591163" style="fill: #d62728"/>
     <use xlink:href="#m9ca76bc846" x="186.955705" y="183.618041" style="fill: #d62728"/>
     <use xlink:href="#m9ca76bc846" x="187.807474" y="185.635896" style="fill: #d62728"/>
     <use xlink:href="#m9ca76bc846" x="188.659243" y="187.643773" style="fill: #d62728"/>
     <use xlink:href="#m9ca76bc846" x="189.511012" y="189.640719" style="fill: #d62728"/>
     <use xlink:href="#m9ca76bc846" x="190.362781" y="191.625782" style="fill: #d62728"/>
     <use xlink:href="#m9ca76bc846" x="191.21455" y="193.59809" style="fill: #d62728"/>
     <use xlink:href="#m9ca76bc846" x="192.066319" y="195.557235" style="fill: #d62728"/>
     <use xlink:href="#m9ca76bc846" x="192.918088" y="197.50297" style="fill: #d62728"/>
     <use xlink:href="#m9ca76bc846" x="193.769857" y="199.435047" style="fill: #d62728"/>
     <use xlink:href="#m9ca76bc846" x="194.621625" y="201.353218" style="fill: #d62728"/>
     <use xlink:href="#m9ca76bc846" x="195.473394" y="203.257237" style="fill: #d62728"/>
     <use xlink:href="#m9ca76bc846" x="196.325163" y="205.146855" style="fill: #d62728"/>
     <use xlink:href="#m9ca76bc846" x="197.176932" y="207.021826" style="fill: #d62728"/>
     <use xlink:href="#m9ca76bc846" x="198.028701" y="208.881902" style="fill: #d62728"/>
     <use xlink:href="#m9ca76bc846" x="198.88047" y="210.726836" style="fill: #d62728"/>
     <use xlink:href="#m9ca76bc846" x="199.732239" y="212.556379" style="fill: #d62728"/>
     <use xlink:href="#m9ca76bc846" x="200.584008" y="214.370285" style="fill: #d62728"/>
     <use xlink:href="#m9ca76bc846" x="201.435777" y="216.168307" style="fill: #d62728"/>
     <use xlink:href="#m9ca76bc846" x="202.287546" y="217.950196" style="fill: #d62728"/>
     <use xlink:href="#m9ca76bc846" x="203.139315" y="219.715706" style="fill: #d62728"/>
     <use xlink:href="#m9ca76bc846" x="203.991084" y="221.464589" style="fill: #d62728"/>
     <use xlink:href="#m9ca76bc846" x="204.842852" y="223.196597" style="fill: #d62728"/>
     <use xlink:href="#m9ca76bc846" x="205.694621" y="224.911484" style="fill: #d62728"/>
     <use xlink:href="#m9ca76bc846" x="206.54639" y="226.609001" style="fill: #d62728"/>
     <use xlink:href="#m9ca76bc846" x="207.398159" y="228.288902" style="fill: #d62728"/>
     <use xlink:href="#m9ca76bc846" x="208.249928" y="229.950938" style="fill: #d62728"/>
     <use xlink:href="#m9ca76bc846" x="209.101697" y="231.594863" style="fill: #d62728"/>
     <use xlink:href="#m9ca76bc846" x="209.953466" y="233.220429" style="fill: #d62728"/>
     <use xlink:href="#m9ca76bc846" x="210.805235" y="234.827389" style="fill: #d62728"/>
     <use xlink:href="#m9ca76bc846" x="211.657004" y="236.415494" style="fill: #d62728"/>
     <use xlink:href="#m9ca76bc846" x="212.508773" y="237.984499" style="fill: #d62728"/>
     <use xlink:href="#m9ca76bc846" x="213.360542" y="239.534155" style="fill: #d62728"/>
     <use xlink:href="#m9ca76bc846" x="214.212311" y="241.064214" style="fill: #d62728"/>
     <use xlink:href="#m9ca76bc846" x="215.064079" y="242.57443" style="fill: #d62728"/>
     <use xlink:href="#m9ca76bc846" x="215.915848" y="244.064556" style="fill: #d62728"/>
     <use xlink:href="#m9ca76bc846" x="216.767617" y="245.534343" style="fill: #d62728"/>
     <use xlink:href="#m9ca76bc846" x="217.619386" y="246.983544" style="fill: #d62728"/>
     <use xlink:href="#m9ca76bc846" x="218.471155" y="248.411911" style="fill: #d62728"/>
     <use xlink:href="#m9ca76bc846" x="219.322924" y="249.819218" style="fill: #d62728"/>
     <use xlink:href="#m9ca76bc846" x="220.174693" y="251.205465" style="fill: #d62728"/>
     <use xlink:href="#m9ca76bc846" x="221.026462" y="252.570799" style="fill: #d62728"/>
     <use xlink:href="#m9ca76bc846" x="221.878231" y="253.915372" style="fill: #d62728"/>
     <use xlink:href="#m9ca76bc846" x="222.73" y="255.239333" style="fill: #d62728"/>
     <use xlink:href="#m9ca76bc846" x="223.581769" y="256.542833" style="fill: #d62728"/>
     <use xlink:href="#m9ca76bc846" x="224.433538" y="257.826023" style="fill: #d62728"/>
     <use xlink:href="#m9ca76bc846" x="225.285306" y="259.089054" style="fill: #d62728"/>
     <use xlink:href="#m9ca76bc846" x="226.137075" y="260.332075" style="fill: #d62728"/>
     <use xlink:href="#m9ca76bc846" x="226.988844" y="261.555237" style="fill: #d62728"/>
     <use xlink:href="#m9ca76bc846" x="227.840613" y="262.758692" style="fill: #d62728"/>
     <use xlink:href="#m9ca76bc846" x="228.692382" y="263.942588" style="fill: #d62728"/>
     <use xlink:href="#m9ca76bc846" x="229.544151" y="265.107077" style="fill: #d62728"/>
     <use xlink:href="#m9ca76bc846" x="230.39592" y="266.25231" style="fill: #d62728"/>
     <use xlink:href="#m9ca76bc846" x="231.247689" y="267.378436" style="fill: #d62728"/>
     <use xlink:href="#m9ca76bc846" x="232.099458" y="268.485607" style="fill: #d62728"/>
     <use xlink:href="#m9ca76bc846" x="232.951227" y="269.573972" style="fill: #d62728"/>
     <use xlink:href="#m9ca76bc846" x="233.802996" y="270.643683" style="fill: #d62728"/>
     <use xlink:href="#m9ca76bc846" x="234.654765" y="271.694889" style="fill: #d62728"/>
     <use xlink:href="#m9ca76bc846" x="235.506533" y="272.727742" style="fill: #d62728"/>
     <use xlink:href="#m9ca76bc846" x="236.358302" y="273.742392" style="fill: #d62728"/>
     <use xlink:href="#m9ca76bc846" x="237.210071" y="274.738988" style="fill: #d62728"/>
     <use xlink:href="#m9ca76bc846" x="238.06184" y="275.717683" style="fill: #d62728"/>
     <use xlink:href="#m9ca76bc846" x="238.913609" y="276.678626" style="fill: #d62728"/>
     <use xlink:href="#m9ca76bc846" x="239.765378" y="277.621968" style="fill: #d62728"/>
     <use xlink:href="#m9ca76bc846" x="240.617147" y="278.547859" style="fill: #d62728"/>
     <use xlink:href="#m9ca76bc846" x="241.468916" y="279.45645" style="fill: #d62728"/>
     <use xlink:href="#m9ca76bc846" x="242.320685" y="280.347891" style="fill: #d62728"/>
     <use xlink:href="#m9ca76bc846" x="243.172454" y="281.222334" style="fill: #d62728"/>
     <use xlink:href="#m9ca76bc846" x="244.024223" y="282.079927" style="fill: #d62728"/>
     <use xlink:href="#m9ca76bc846" x="244.875992" y="282.920823" style="fill: #d62728"/>
     <use xlink:href="#m9ca76bc846" x="245.727761" y="283.74517" style="fill: #d62728"/>
     <use xlink:href="#m9ca76bc846" x="246.579529" y="284.553121" style="fill: #d62728"/>
     <use xlink:href="#m9ca76bc846" x="247.431298" y="285.344826" style="fill: #d62728"/>
     <use xlink:href="#m9ca76bc846" x="248.283067" y="286.120458" style="fill: #d62728"/>
     <use xlink:href="#m9ca76bc846" x="249.134836" y="286.880219" style="fill: #d62728"/>
     <use xlink:href="#m9ca76bc846" x="249.986605" y="287.624308" style="fill: #d62728"/>
     <use xlink:href="#m9ca76bc846" x="250.838374" y="288.352927" style="fill: #d62728"/>
     <use xlink:href="#m9ca76bc846" x="251.690143" y="289.066278" style="fill: #d62728"/>
     <use xlink:href="#m9ca76bc846" x="252.541912" y="289.764562" style="fill: #d62728"/>
     <use xlink:href="#m9ca76bc846" x="253.393681" y="290.44798" style="fill: #d62728"/>
     <use xlink:href="#m9ca76bc846" x="254.24545" y="291.116733" style="fill: #d62728"/>
     <use xlink:href="#m9ca76bc846" x="255.097219" y="291.771023" style="fill: #d62728"/>
     <use xlink:href="#m9ca76bc846" x="255.948988" y="292.41105" style="fill: #d62728"/>
     <use xlink:href="#m9ca76bc846" x="256.800756" y="293.037017" style="fill: #d62728"/>
     <use xlink:href="#m9ca76bc846" x="257.652525" y="293.649124" style="fill: #d62728"/>
     <use xlink:href="#m9ca76bc846" x="258.504294" y="294.247572" style="fill: #d62728"/>
     <use xlink:href="#m9ca76bc846" x="259.356063" y="294.832564" style="fill: #d62728"/>
     <use xlink:href="#m9ca76bc846" x="260.207832" y="295.404299" style="fill: #d62728"/>
     <use xlink:href="#m9ca76bc846" x="261.059601" y="295.96298" style="fill: #d62728"/>
     <use xlink:href="#m9ca76bc846" x="261.91137" y="296.508808" style="fill: #d62728"/>
     <use xlink:href="#m9ca76bc846" x="262.763139" y="297.041983" style="fill: #d62728"/>
     <use xlink:href="#m9ca76bc846" x="263.614908" y="297.562708" style="fill: #d62728"/>
     <use xlink:href="#m9ca76bc846" x="264.466677" y="298.071183" style="fill: #d62728"/>
     <use xlink:href="#m9ca76bc846" x="265.318446" y="298.56761" style="fill: #d62728"/>
     <use xlink:href="#m9ca76bc846" x="266.170215" y="299.05219" style="fill: #d62728"/>
     <use xlink:href="#m9ca76bc846" x="267.021983" y="299.525125" style="fill: #d62728"/>
     <use xlink:href="#m9ca76bc846" x="267.873752" y="299.986615" style="fill: #d62728"/>
     <use xlink:href="#m9ca76bc846" x="268.725521" y="300.436861" style="fill: #d62728"/>
     <use xlink:href="#m9ca76bc846" x="269.57729" y="300.876066" style="fill: #d62728"/>
     <use xlink:href="#m9ca76bc846" x="270.429059" y="301.30443" style="fill: #d62728"/>
     <use xlink:href="#m9ca76bc846" x="271.280828" y="301.722155" style="fill: #d62728"/>
     <use xlink:href="#m9ca76bc846" x="272.132597" y="302.129441" style="fill: #d62728"/>
     <use xlink:href="#m9ca76bc846" x="272.984366" y="302.526491" style="fill: #d62728"/>
     <use xlink:href="#m9ca76bc846" x="273.836135" y="302.913505" style="fill: #d62728"/>
     <use xlink:href="#m9ca76bc846" x="274.687904" y="303.290684" style="fill: #d62728"/>
     <use xlink:href="#m9ca76bc846" x="275.539673" y="303.658231" style="fill: #d62728"/>
     <use xlink:href="#m9ca76bc846" x="276.391442" y="304.016346" style="fill: #d62728"/>
     <use xlink:href="#m9ca76bc846" x="277.24321" y="304.36523" style="fill: #d62728"/>
     <use xlink:href="#m9ca76bc846" x="278.094979" y="304.705085" style="fill: #d62728"/>
     <use xlink:href="#m9ca76bc846" x="278.946748" y="305.036112" style="fill: #d62728"/>
     <use xlink:href="#m9ca76bc846" x="279.798517" y="305.358512" style="fill: #d62728"/>
     <use xlink:href="#m9ca76bc846" x="280.650286" y="305.672487" style="fill: #d62728"/>
     <use xlink:href="#m9ca76bc846" x="281.502055" y="305.978237" style="fill: #d62728"/>
     <use xlink:href="#m9ca76bc846" x="282.353824" y="306.275965" style="fill: #d62728"/>
     <use xlink:href="#m9ca76bc846" x="283.205593" y="306.565871" style="fill: #d62728"/>
     <use xlink:href="#m9ca76bc846" x="284.057362" y="306.848156" style="fill: #d62728"/>
     <use xlink:href="#m9ca76bc846" x="284.909131" y="307.123023" style="fill: #d62728"/>
     <use xlink:href="#m9ca76bc846" x="285.7609" y="307.390671" style="fill: #d62728"/>
     <use xlink:href="#m9ca76bc846" x="286.612669" y="307.651303" style="fill: #d62728"/>
     <use xlink:href="#m9ca76bc846" x="287.464437" y="307.905119" style="fill: #d62728"/>
     <use xlink:href="#m9ca76bc846" x="288.316206" y="308.152321" style="fill: #d62728"/>
     <use xlink:href="#m9ca76bc846" x="289.167975" y="308.393111" style="fill: #d62728"/>
     <use xlink:href="#m9ca76bc846" x="290.019744" y="308.627689" style="fill: #d62728"/>
     <use xlink:href="#m9ca76bc846" x="290.871513" y="308.856256" style="fill: #d62728"/>
     <use xlink:href="#m9ca76bc846" x="291.723282" y="309.079015" style="fill: #d62728"/>
     <use xlink:href="#m9ca76bc846" x="292.575051" y="309.296166" style="fill: #d62728"/>
     <use xlink:href="#m9ca76bc846" x="293.42682" y="309.50791" style="fill: #d62728"/>
     <use xlink:href="#m9ca76bc846" x="294.278589" y="309.714449" style="fill: #d62728"/>
     <use xlink:href="#m9ca76bc846" x="295.130358" y="309.915984" style="fill: #d62728"/>
     <use xlink:href="#m9ca76bc846" x="295.982127" y="310.112717" style="fill: #d62728"/>
     <use xlink:href="#m9ca76bc846" x="296.833896" y="310.304848" style="fill: #d62728"/>
     <use xlink:href="#m9ca76bc846" x="297.685664" y="310.492578" style="fill: #d62728"/>
     <use xlink:href="#m9ca76bc846" x="298.537433" y="310.67611" style="fill: #d62728"/>
     <use xlink:href="#m9ca76bc846" x="299.389202" y="310.855644" style="fill: #d62728"/>
     <use xlink:href="#m9ca76bc846" x="300.240971" y="311.031382" style="fill: #d62728"/>
     <use xlink:href="#m9ca76bc846" x="301.09274" y="311.203525" style="fill: #d62728"/>
     <use xlink:href="#m9ca76bc846" x="301.944509" y="311.372274" style="fill: #d62728"/>
     <use xlink:href="#m9ca76bc846" x="302.796278" y="311.53783" style="fill: #d62728"/>
     <use xlink:href="#m9ca76bc846" x="303.648047" y="311.700395" style="fill: #d62728"/>
    </g>
   </g>
   <g id="patch_17">
    <path d="M 34.820312 316.291667 
L 34.820312 29.5 
" style="fill: none; stroke: #000000; stroke-width: 0.8; stroke-linejoin: miter; stroke-linecap: square"/>
   </g>
   <g id="patch_18">
    <path d="M 317.796875 316.291667 
L 317.796875 29.5 
" style="fill: none; stroke: #000000; stroke-width: 0.8; stroke-linejoin: miter; stroke-linecap: square"/>
   </g>
   <g id="patch_19">
    <path d="M 34.820312 316.291667 
L 317.796875 316.291667 
" style="fill: none; stroke: #000000; stroke-width: 0.8; stroke-linejoin: miter; stroke-linecap: square"/>
   </g>
   <g id="patch_20">
    <path d="M 34.820312 29.5 
L 317.796875 29.5 
" style="fill: none; stroke: #000000; stroke-width: 0.8; stroke-linejoin: miter; stroke-linecap: square"/>
   </g>
   <g id="text_26">
    <!-- Fitted $\tt poisson$ PMF and Histogram -->
    <g transform="translate(71.368594 23.5) scale(0.12 -0.12)">
     <defs>
      <path id="DejaVuSans-46" d="M 628 4666 
L 3309 4666 
L 3309 4134 
L 1259 4134 
L 1259 2759 
L 3109 2759 
L 3109 2228 
L 1259 2228 
L 1259 0 
L 628 0 
L 628 4666 
z
" transform="scale(0.015625)"/>
      <path id="DejaVuSans-64" d="M 2906 2969 
L 2906 4863 
L 3481 4863 
L 3481 0 
L 2906 0 
L 2906 525 
Q 2725 213 2448 61 
Q 2172 -91 1784 -91 
Q 1150 -91 751 415 
Q 353 922 353 1747 
Q 353 2572 751 3078 
Q 1150 3584 1784 3584 
Q 2172 3584 2448 3432 
Q 2725 3281 2906 2969 
z
M 947 1747 
Q 947 1113 1208 752 
Q 1469 391 1925 391 
Q 2381 391 2643 752 
Q 2906 1113 2906 1747 
Q 2906 2381 2643 2742 
Q 2381 3103 1925 3103 
Q 1469 3103 1208 2742 
Q 947 2381 947 1747 
z
" transform="scale(0.015625)"/>
      <path id="DejaVuSans-20" transform="scale(0.015625)"/>
      <path id="DejaVuSansMono-70" d="M 1172 441 
L 1172 -1331 
L 594 -1331 
L 594 3500 
L 1172 3500 
L 1172 3053 
Q 1316 3313 1555 3448 
Q 1794 3584 2106 3584 
Q 2741 3584 3102 3093 
Q 3463 2603 3463 1734 
Q 3463 881 3100 395 
Q 2738 -91 2106 -91 
Q 1788 -91 1548 45 
Q 1309 181 1172 441 
z
M 2859 1747 
Q 2859 2416 2648 2756 
Q 2438 3097 2022 3097 
Q 1603 3097 1387 2755 
Q 1172 2413 1172 1747 
Q 1172 1084 1387 740 
Q 1603 397 2022 397 
Q 2438 397 2648 737 
Q 2859 1078 2859 1747 
z
" transform="scale(0.015625)"/>
      <path id="DejaVuSansMono-6f" d="M 1925 3097 
Q 1488 3097 1263 2756 
Q 1038 2416 1038 1747 
Q 1038 1081 1263 739 
Q 1488 397 1925 397 
Q 2366 397 2591 739 
Q 2816 1081 2816 1747 
Q 2816 2416 2591 2756 
Q 2366 3097 1925 3097 
z
M 1925 3584 
Q 2653 3584 3039 3112 
Q 3425 2641 3425 1747 
Q 3425 850 3040 379 
Q 2656 -91 1925 -91 
Q 1197 -91 812 379 
Q 428 850 428 1747 
Q 428 2641 812 3112 
Q 1197 3584 1925 3584 
z
" transform="scale(0.015625)"/>
      <path id="DejaVuSansMono-69" d="M 800 3500 
L 2272 3500 
L 2272 447 
L 3413 447 
L 3413 0 
L 556 0 
L 556 447 
L 1697 447 
L 1697 3053 
L 800 3053 
L 800 3500 
z
M 1697 4863 
L 2272 4863 
L 2272 4134 
L 1697 4134 
L 1697 4863 
z
" transform="scale(0.015625)"/>
      <path id="DejaVuSansMono-73" d="M 3041 3378 
L 3041 2816 
Q 2794 2959 2544 3031 
Q 2294 3103 2034 3103 
Q 1644 3103 1451 2976 
Q 1259 2850 1259 2591 
Q 1259 2356 1403 2240 
Q 1547 2125 2119 2016 
L 2350 1972 
Q 2778 1891 2998 1647 
Q 3219 1403 3219 1013 
Q 3219 494 2850 201 
Q 2481 -91 1825 -91 
Q 1566 -91 1281 -36 
Q 997 19 666 128 
L 666 722 
Q 988 556 1281 473 
Q 1575 391 1838 391 
Q 2219 391 2428 545 
Q 2638 700 2638 978 
Q 2638 1378 1872 1531 
L 1847 1538 
L 1631 1581 
Q 1134 1678 906 1908 
Q 678 2138 678 2534 
Q 678 3038 1018 3311 
Q 1359 3584 1991 3584 
Q 2272 3584 2531 3532 
Q 2791 3481 3041 3378 
z
" transform="scale(0.015625)"/>
      <path id="DejaVuSansMono-6e" d="M 3284 2169 
L 3284 0 
L 2706 0 
L 2706 2169 
Q 2706 2641 2540 2862 
Q 2375 3084 2022 3084 
Q 1619 3084 1401 2798 
Q 1184 2513 1184 1978 
L 1184 0 
L 609 0 
L 609 3500 
L 1184 3500 
L 1184 2975 
Q 1338 3275 1600 3429 
Q 1863 3584 2222 3584 
Q 2756 3584 3020 3232 
Q 3284 2881 3284 2169 
z
" transform="scale(0.015625)"/>
      <path id="DejaVuSans-50" d="M 1259 4147 
L 1259 2394 
L 2053 2394 
Q 2494 2394 2734 2622 
Q 2975 2850 2975 3272 
Q 2975 3691 2734 3919 
Q 2494 4147 2053 4147 
L 1259 4147 
z
M 628 4666 
L 2053 4666 
Q 2838 4666 3239 4311 
Q 3641 3956 3641 3272 
Q 3641 2581 3239 2228 
Q 2838 1875 2053 1875 
L 1259 1875 
L 1259 0 
L 628 0 
L 628 4666 
z
" transform="scale(0.015625)"/>
      <path id="DejaVuSans-4d" d="M 628 4666 
L 1569 4666 
L 2759 1491 
L 3956 4666 
L 4897 4666 
L 4897 0 
L 4281 0 
L 4281 4097 
L 3078 897 
L 2444 897 
L 1241 4097 
L 1241 0 
L 628 0 
L 628 4666 
z
" transform="scale(0.015625)"/>
      <path id="DejaVuSans-48" d="M 628 4666 
L 1259 4666 
L 1259 2753 
L 3553 2753 
L 3553 4666 
L 4184 4666 
L 4184 0 
L 3553 0 
L 3553 2222 
L 1259 2222 
L 1259 0 
L 628 0 
L 628 4666 
z
" transform="scale(0.015625)"/>
      <path id="DejaVuSans-73" d="M 2834 3397 
L 2834 2853 
Q 2591 2978 2328 3040 
Q 2066 3103 1784 3103 
Q 1356 3103 1142 2972 
Q 928 2841 928 2578 
Q 928 2378 1081 2264 
Q 1234 2150 1697 2047 
L 1894 2003 
Q 2506 1872 2764 1633 
Q 3022 1394 3022 966 
Q 3022 478 2636 193 
Q 2250 -91 1575 -91 
Q 1294 -91 989 -36 
Q 684 19 347 128 
L 347 722 
Q 666 556 975 473 
Q 1284 391 1588 391 
Q 1994 391 2212 530 
Q 2431 669 2431 922 
Q 2431 1156 2273 1281 
Q 2116 1406 1581 1522 
L 1381 1569 
Q 847 1681 609 1914 
Q 372 2147 372 2553 
Q 372 3047 722 3315 
Q 1072 3584 1716 3584 
Q 2034 3584 2315 3537 
Q 2597 3491 2834 3397 
z
" transform="scale(0.015625)"/>
      <path id="DejaVuSans-67" d="M 2906 1791 
Q 2906 2416 2648 2759 
Q 2391 3103 1925 3103 
Q 1463 3103 1205 2759 
Q 947 2416 947 1791 
Q 947 1169 1205 825 
Q 1463 481 1925 481 
Q 2391 481 2648 825 
Q 2906 1169 2906 1791 
z
M 3481 434 
Q 3481 -459 3084 -895 
Q 2688 -1331 1869 -1331 
Q 1566 -1331 1297 -1286 
Q 1028 -1241 775 -1147 
L 775 -588 
Q 1028 -725 1275 -790 
Q 1522 -856 1778 -856 
Q 2344 -856 2625 -561 
Q 2906 -266 2906 331 
L 2906 616 
Q 2728 306 2450 153 
Q 2172 0 1784 0 
Q 1141 0 747 490 
Q 353 981 353 1791 
Q 353 2603 747 3093 
Q 1141 3584 1784 3584 
Q 2172 3584 2450 3431 
Q 2728 3278 2906 2969 
L 2906 3500 
L 3481 3500 
L 3481 434 
z
" transform="scale(0.015625)"/>
      <path id="DejaVuSans-6d" d="M 3328 2828 
Q 3544 3216 3844 3400 
Q 4144 3584 4550 3584 
Q 5097 3584 5394 3201 
Q 5691 2819 5691 2113 
L 5691 0 
L 5113 0 
L 5113 2094 
Q 5113 2597 4934 2840 
Q 4756 3084 4391 3084 
Q 3944 3084 3684 2787 
Q 3425 2491 3425 1978 
L 3425 0 
L 2847 0 
L 2847 2094 
Q 2847 2600 2669 2842 
Q 2491 3084 2119 3084 
Q 1678 3084 1418 2786 
Q 1159 2488 1159 1978 
L 1159 0 
L 581 0 
L 581 3500 
L 1159 3500 
L 1159 2956 
Q 1356 3278 1631 3431 
Q 1906 3584 2284 3584 
Q 2666 3584 2933 3390 
Q 3200 3197 3328 2828 
z
" transform="scale(0.015625)"/>
     </defs>
     <use xlink:href="#DejaVuSans-46" transform="translate(0 0.015625)"/>
     <use xlink:href="#DejaVuSans-69" transform="translate(57.519531 0.015625)"/>
     <use xlink:href="#DejaVuSans-74" transform="translate(85.302734 0.015625)"/>
     <use xlink:href="#DejaVuSans-74" transform="translate(124.511719 0.015625)"/>
     <use xlink:href="#DejaVuSans-65" transform="translate(163.720703 0.015625)"/>
     <use xlink:href="#DejaVuSans-64" transform="translate(225.244141 0.015625)"/>
     <use xlink:href="#DejaVuSans-20" transform="translate(288.720703 0.015625)"/>
     <use xlink:href="#DejaVuSansMono-70" transform="translate(320.507812 0.015625)"/>
     <use xlink:href="#DejaVuSansMono-6f" transform="translate(380.712891 0.015625)"/>
     <use xlink:href="#DejaVuSansMono-69" transform="translate(440.917969 0.015625)"/>
     <use xlink:href="#DejaVuSansMono-73" transform="translate(501.123047 0.015625)"/>
     <use xlink:href="#DejaVuSansMono-73" transform="translate(561.328125 0.015625)"/>
     <use xlink:href="#DejaVuSansMono-6f" transform="translate(621.533203 0.015625)"/>
     <use xlink:href="#DejaVuSansMono-6e" transform="translate(681.738281 0.015625)"/>
     <use xlink:href="#DejaVuSans-20" transform="translate(741.943359 0.015625)"/>
     <use xlink:href="#DejaVuSans-50" transform="translate(773.730469 0.015625)"/>
     <use xlink:href="#DejaVuSans-4d" transform="translate(834.033203 0.015625)"/>
     <use xlink:href="#DejaVuSans-46" transform="translate(920.3125 0.015625)"/>
     <use xlink:href="#DejaVuSans-20" transform="translate(977.832031 0.015625)"/>
     <use xlink:href="#DejaVuSans-61" transform="translate(1009.619141 0.015625)"/>
     <use xlink:href="#DejaVuSans-6e" transform="translate(1070.898438 0.015625)"/>
     <use xlink:href="#DejaVuSans-64" transform="translate(1134.277344 0.015625)"/>
     <use xlink:href="#DejaVuSans-20" transform="translate(1197.753906 0.015625)"/>
     <use xlink:href="#DejaVuSans-48" transform="translate(1229.541016 0.015625)"/>
     <use xlink:href="#DejaVuSans-69" transform="translate(1304.736328 0.015625)"/>
     <use xlink:href="#DejaVuSans-73" transform="translate(1332.519531 0.015625)"/>
     <use xlink:href="#DejaVuSans-74" transform="translate(1384.619141 0.015625)"/>
     <use xlink:href="#DejaVuSans-6f" transform="translate(1423.828125 0.015625)"/>
     <use xlink:href="#DejaVuSans-67" transform="translate(1485.009766 0.015625)"/>
     <use xlink:href="#DejaVuSans-72" transform="translate(1548.486328 0.015625)"/>
     <use xlink:href="#DejaVuSans-61" transform="translate(1589.599609 0.015625)"/>
     <use xlink:href="#DejaVuSans-6d" transform="translate(1650.878906 0.015625)"/>
    </g>
   </g>
   <g id="legend_1">
    <g id="patch_21">
     <path d="M 165.546875 66.85625 
L 310.796875 66.85625 
Q 312.796875 66.85625 312.796875 64.85625 
L 312.796875 36.5 
Q 312.796875 34.5 310.796875 34.5 
L 165.546875 34.5 
Q 163.546875 34.5 163.546875 36.5 
L 163.546875 64.85625 
Q 163.546875 66.85625 165.546875 66.85625 
z
" style="fill: #ffffff; opacity: 0.8; stroke: #cccccc; stroke-linejoin: miter"/>
    </g>
    <g id="line2d_24">
     <path d="M 167.546875 42.598438 
L 187.546875 42.598438 
" style="fill: none; stroke: #1f77b4; stroke-width: 1.5"/>
    </g>
    <g id="text_27">
     <!-- Fitted Distribution PMF -->
     <g transform="translate(195.546875 46.098438) scale(0.1 -0.1)">
      <defs>
       <path id="DejaVuSans-44" d="M 1259 4147 
L 1259 519 
L 2022 519 
Q 2988 519 3436 956 
Q 3884 1394 3884 2338 
Q 3884 3275 3436 3711 
Q 2988 4147 2022 4147 
L 1259 4147 
z
M 628 4666 
L 1925 4666 
Q 3281 4666 3915 4102 
Q 4550 3538 4550 2338 
Q 4550 1131 3912 565 
Q 3275 0 1925 0 
L 628 0 
L 628 4666 
z
" transform="scale(0.015625)"/>
      </defs>
      <use xlink:href="#DejaVuSans-46"/>
      <use xlink:href="#DejaVuSans-69" x="50.269531"/>
      <use xlink:href="#DejaVuSans-74" x="78.052734"/>
      <use xlink:href="#DejaVuSans-74" x="117.261719"/>
      <use xlink:href="#DejaVuSans-65" x="156.470703"/>
      <use xlink:href="#DejaVuSans-64" x="217.994141"/>
      <use xlink:href="#DejaVuSans-20" x="281.470703"/>
      <use xlink:href="#DejaVuSans-44" x="313.257812"/>
      <use xlink:href="#DejaVuSans-69" x="390.259766"/>
      <use xlink:href="#DejaVuSans-73" x="418.042969"/>
      <use xlink:href="#DejaVuSans-74" x="470.142578"/>
      <use xlink:href="#DejaVuSans-72" x="509.351562"/>
      <use xlink:href="#DejaVuSans-69" x="550.464844"/>
      <use xlink:href="#DejaVuSans-62" x="578.248047"/>
      <use xlink:href="#DejaVuSans-75" x="641.724609"/>
      <use xlink:href="#DejaVuSans-74" x="705.103516"/>
      <use xlink:href="#DejaVuSans-69" x="744.3125"/>
      <use xlink:href="#DejaVuSans-6f" x="772.095703"/>
      <use xlink:href="#DejaVuSans-6e" x="833.277344"/>
      <use xlink:href="#DejaVuSans-20" x="896.65625"/>
      <use xlink:href="#DejaVuSans-50" x="928.443359"/>
      <use xlink:href="#DejaVuSans-4d" x="988.746094"/>
      <use xlink:href="#DejaVuSans-46" x="1075.025391"/>
     </g>
    </g>
    <g id="patch_22">
     <path d="M 167.546875 60.776563 
L 187.546875 60.776563 
L 187.546875 53.776563 
L 167.546875 53.776563 
z
" style="fill: #ff7f0e"/>
    </g>
    <g id="text_28">
     <!-- Histogram of Data -->
     <g transform="translate(195.546875 60.776563) scale(0.1 -0.1)">
      <use xlink:href="#DejaVuSans-48"/>
      <use xlink:href="#DejaVuSans-69" x="75.195312"/>
      <use xlink:href="#DejaVuSans-73" x="102.978516"/>
      <use xlink:href="#DejaVuSans-74" x="155.078125"/>
      <use xlink:href="#DejaVuSans-6f" x="194.287109"/>
      <use xlink:href="#DejaVuSans-67" x="255.46875"/>
      <use xlink:href="#DejaVuSans-72" x="318.945312"/>
      <use xlink:href="#DejaVuSans-61" x="360.058594"/>
      <use xlink:href="#DejaVuSans-6d" x="421.337891"/>
      <use xlink:href="#DejaVuSans-20" x="518.75"/>
      <use xlink:href="#DejaVuSans-6f" x="550.537109"/>
      <use xlink:href="#DejaVuSans-66" x="611.71875"/>
      <use xlink:href="#DejaVuSans-20" x="646.923828"/>
      <use xlink:href="#DejaVuSans-44" x="678.710938"/>
      <use xlink:href="#DejaVuSans-61" x="755.712891"/>
      <use xlink:href="#DejaVuSans-74" x="816.992188"/>
      <use xlink:href="#DejaVuSans-61" x="856.201172"/>
     </g>
    </g>
   </g>
  </g>
 </g>
 <defs>
  <clipPath id="pfae335a36b">
   <rect x="34.820312" y="29.5" width="282.976562" height="286.791667"/>
  </clipPath>
 </defs>
</svg>
